<?xml version="1.0" standalone="no"?>
<!DOCTYPE svg PUBLIC "-//W3C//DTD SVG 20010904//EN"
 "http://www.w3.org/TR/2001/REC-SVG-20010904/DTD/svg10.dtd">
<svg version="1.0" xmlns="http://www.w3.org/2000/svg"
 width="192.000000pt" height="192.000000pt" viewBox="0 0 192.000000 192.000000"
 preserveAspectRatio="xMidYMid meet">
<metadata>
Created by potrace 1.11, written by Peter Selinger 2001-2013
</metadata>
<g transform="translate(0.000000,192.000000) scale(0.100000,-0.100000)"
fill="#000000" stroke="none">
<path d="M0 960 l0 -960 960 0 960 0 0 960 0 960 -960 0 -960 0 0 -960z m527
366 c-4 -25 -9 -80 -13 -123 l-6 -78 31 -17 c35 -19 28 -32 56 97 9 39 18 78
21 88 4 12 0 17 -16 17 -17 0 -21 5 -18 28 3 26 5 27 76 30 39 2 72 -1 72 -5
-1 -33 -15 -53 -36 -53 -13 0 -24 -3 -24 -6 0 -4 -12 -63 -26 -132 -25 -121
-26 -126 -9 -161 27 -56 31 -131 9 -190 l-18 -51 24 -25 24 -26 -41 7 c-32 5
-48 2 -70 -13 -48 -33 -82 -43 -141 -43 -68 0 -124 24 -169 71 -110 117 -71
314 74 377 l48 20 38 116 38 116 41 0 41 0 -6 -44z m293 32 c0 -7 -4 -29 -9
-48 -24 -91 -24 -92 1 -88 18 2 24 13 33 59 16 80 21 89 50 89 21 0 25 -4 20
-22 -3 -13 -18 -86 -35 -163 -17 -77 -32 -150 -35 -162 -4 -16 -13 -23 -30
-23 -28 0 -31 13 -16 70 23 91 23 92 -1 88 -19 -3 -24 -14 -37 -78 -15 -70
-18 -75 -43 -78 -16 -2 -28 -1 -28 3 0 8 70 336 75 353 3 6 16 12 30 12 14 0
25 -6 25 -12z m210 4 c0 -4 -13 -68 -30 -142 -16 -74 -30 -141 -30 -147 0 -8
14 -13 36 -13 29 0 35 -3 30 -16 -3 -9 -6 -22 -6 -30 0 -11 -16 -14 -65 -14
-36 0 -65 2 -65 5 0 8 70 337 75 353 5 13 55 17 55 4z m240 -6 c0 -33 -13 -46
-45 -46 -25 0 -34 -5 -39 -22 -12 -45 -7 -58 20 -58 22 0 25 -4 22 -27 -2 -23
-8 -29 -35 -31 -29 -3 -32 -7 -42 -53 -6 -28 -11 -52 -11 -54 0 -3 14 -5 31
-5 27 0 30 -3 27 -27 -3 -27 -6 -28 -66 -31 -61 -3 -62 -2 -57 20 9 37 75 342
75 345 0 2 27 3 60 3 45 0 60 -4 60 -14z m186 -2 c-3 -9 -6 -22 -6 -30 0 -8
-10 -14 -24 -14 -22 0 -26 -7 -41 -77 -51 -237 -48 -228 -78 -231 -24 -3 -27
-1 -22 20 19 84 55 260 55 273 0 8 -9 15 -20 15 -13 0 -18 5 -15 15 3 8 7 22
10 30 3 11 21 15 76 15 61 0 70 -2 65 -16z m162 -11 c-2 -23 -9 -29 -38 -33
-26 -4 -36 -11 -41 -30 -12 -44 -10 -50 21 -50 34 0 34 1 20 -34 -7 -20 -17
-26 -38 -26 -26 0 -30 -4 -36 -39 -3 -22 -9 -46 -12 -55 -5 -13 1 -16 31 -16
30 0 36 -3 31 -16 -3 -9 -6 -22 -6 -30 0 -10 -15 -14 -60 -14 -41 0 -60 4 -60
13 0 6 17 90 37 185 l37 172 59 0 c58 0 58 0 55 -27z m-68 -414 c0 -3 19 -9
43 -13 59 -10 111 -47 136 -98 61 -127 -24 -261 -167 -261 -43 0 -61 6 -94 29
-60 42 -80 85 -76 160 4 69 35 122 88 149 19 10 31 26 35 47 7 30 8 31 21 13
8 -10 14 -22 14 -26z m-694 -1 c-3 -13 -6 -26 -6 -30 0 -5 -10 -8 -23 -8 -22
0 -25 -9 -56 -155 -33 -154 -34 -155 -61 -155 l-27 0 27 130 c16 72 31 142 34
155 5 20 3 25 -14 25 -14 0 -20 7 -20 23 0 34 6 37 83 37 67 0 69 -1 63 -22z
m134 -15 c0 -21 -7 -96 -15 -168 -8 -71 -15 -138 -15 -147 0 -13 -8 -18 -29
-18 -28 0 -29 2 -24 35 5 31 3 35 -15 35 -16 0 -24 -9 -30 -32 -6 -26 -14 -34
-35 -36 -15 -2 -27 0 -27 3 0 8 111 347 117 358 2 4 20 7 39 7 33 0 34 -1 34
-37z m140 24 c0 -7 -13 -75 -30 -152 -16 -77 -30 -141 -30 -142 0 -2 16 -3 35
-3 37 0 38 -2 29 -37 -6 -21 -12 -23 -71 -23 -57 0 -64 2 -59 18 5 15 76 343
76 349 0 2 11 3 25 3 14 0 25 -6 25 -13z m180 11 c0 -2 -7 -28 -15 -58 -8 -30
-13 -56 -11 -58 3 -2 23 24 45 57 32 47 47 61 66 61 14 0 25 -2 25 -5 0 -3
-23 -40 -51 -82 l-52 -76 12 -76 c6 -42 11 -89 11 -104 0 -25 -3 -28 -27 -25
-24 3 -28 8 -31 38 -7 95 -24 101 -42 15 -10 -48 -14 -55 -36 -55 -13 0 -24 5
-24 12 0 6 17 89 37 185 l37 173 28 0 c15 0 28 -1 28 -2z"/>
<path d="M447 1210 c-20 -72 -20 -70 -3 -70 10 0 16 19 21 61 4 33 5 62 3 65
-3 2 -12 -23 -21 -56z"/>
<path d="M417 1103 c-2 -5 -10 -29 -17 -55 -11 -43 -16 -48 -41 -48 l-28 0 16
46 c8 25 13 47 11 49 -2 3 -23 -7 -46 -22 -120 -78 -122 -256 -4 -338 39 -27
52 -30 116 -30 62 0 78 4 113 27 73 48 110 156 82 237 -9 25 -16 31 -40 31
-26 0 -28 2 -23 29 5 22 1 32 -17 45 -31 21 -39 20 -39 -6 0 -48 -12 -68 -37
-68 -25 0 -25 1 -18 55 5 45 4 55 -9 55 -8 0 -17 -3 -19 -7z m-81 -201 c16
-10 3 -37 -18 -38 -10 -1 -16 2 -13 6 3 5 0 12 -6 16 -8 4 -7 9 2 15 17 11 21
11 35 1z m100 0 c15 -9 3 -37 -16 -37 -19 0 -31 28 -16 37 6 4 13 8 16 8 3 0
10 -4 16 -8z m103 -1 c9 -6 10 -11 2 -15 -6 -4 -9 -11 -6 -16 3 -4 -3 -7 -13
-6 -21 1 -34 28 -18 38 14 10 18 10 35 -1z"/>
<path d="M1504 871 c-107 -50 -115 -205 -12 -265 96 -57 215 6 225 121 11 112
-109 193 -213 144z m32 -119 c15 -9 3 -37 -16 -37 -19 0 -31 28 -16 37 6 4 13
8 16 8 3 0 10 -4 16 -8z m100 0 c16 -10 3 -37 -18 -38 -10 -1 -16 2 -13 6 3 5
0 12 -6 16 -8 4 -7 9 2 15 17 11 21 11 35 1z"/>
<path d="M926 839 c-11 -32 -36 -123 -36 -131 0 -4 6 -8 14 -8 10 0 18 22 26
71 7 39 9 73 6 76 -3 3 -8 0 -10 -8z"/>
</g>
</svg>
